
        <svg xmlns="http://www.w3.org/2000/svg" xmlns:xlink="http://www.w3.org/1999/xlink" version="1.1" width="3162.3502126014687" height="975.5227538762708" viewBox="0 -113.64514882102822 3162.3502126014687 975.5227538762708">
			
			<g transform="scale(8.117510630073443) translate(10, 10)">
				<defs id="SvgjsDefs3547"/><g id="SvgjsG3548" featureKey="monogramFeature-0" transform="matrix(5.7603688408046585,0,0,5.7603688408046585,41.3870967177078,-42.8018442040233)" fill="#fff"><path d="M3.04 5 q0.3 0 0.51 0.21 t0.21 0.51 l0 1.46 q0 0.3 -0.21 0.51 t-0.51 0.21 l-2.06 0 q-0.28 0 -0.49 -0.21 t-0.21 -0.51 l0 -1.46 q0 -0.3 0.21 -0.51 t0.49 -0.21 l2.06 0 z M11.98 5 q0.28 0 0.49 0.21 t0.21 0.51 l0 1.46 q0 0.3 -0.21 0.51 t-0.49 0.21 l-4.02 0 l0 11.36 q0 0.28 -0.21 0.49 t-0.49 0.21 l-1.54 0 q-0.3 0 -0.51 -0.21 t-0.21 -0.49 l0 -13.54 q0 -0.3 0.21 -0.51 t0.51 -0.21 l6.26 0 z"/></g><g id="SvgjsG3549" featureKey="q4o0QG-0" transform="matrix(3.6947774816190933,0,0,3.6947774816190933,88.11807278914195,-9.473880360866687)" fill="#fff"><path d="M8.22 5 q3.28 0 5.38 2.2 q2.06 2.16 2.06 5.3 t-2.06 5.3 q-2.1 2.2 -5.38 2.2 t-5.38 -2.2 q-2.06 -2.16 -2.06 -5.3 t2.06 -5.3 q2.1 -2.2 5.38 -2.2 z M8.22 17.14 q2.06 0 3.32 -1.32 q1.22 -1.28 1.22 -3.31 t-1.24 -3.34 t-3.3 -1.31 t-3.3 1.31 t-1.24 3.34 t1.22 3.31 q1.26 1.32 3.32 1.32 z M30.474 5 q0.28 0 0.49 0.21 t0.21 0.49 l0 13.4 q0 0.28 -0.21 0.49 t-0.49 0.21 l-1.52 0 q-0.3 0 -0.5 -0.21 t-0.2 -0.49 l0 -9.04 l-3.7 4.76 q-0.22 0.26 -0.56 0.26 l0 0 q-0.16 0 -0.32 -0.07 t-0.24 -0.21 l-6.56 -8.68 q-0.12 -0.14 -0.14 -0.35 t0.08 -0.38 t0.26 -0.28 t0.36 -0.11 l1.76 0 q0.34 0 0.56 0.28 l4.24 5.6 l4.14 -5.6 q0.22 -0.28 0.58 -0.28 l1.76 0 z M18.954 14.7 q0.28 0 0.49 0.2 t0.21 0.5 l0 3.7 q0 0.28 -0.21 0.49 t-0.49 0.21 l-1.52 0 q-0.28 0 -0.49 -0.21 t-0.21 -0.49 l0 -3.7 q0 -0.3 0.21 -0.5 t0.49 -0.2 l1.52 0 z M39.688 5 q3.28 0 5.38 2.2 q2.06 2.16 2.06 5.3 t-2.06 5.3 q-2.1 2.2 -5.38 2.2 t-5.38 -2.2 q-2.06 -2.16 -2.06 -5.3 t2.06 -5.3 q2.1 -2.2 5.38 -2.2 z M39.688 17.14 q2.06 0 3.32 -1.32 q1.22 -1.28 1.22 -3.31 t-1.24 -3.34 t-3.3 -1.31 t-3.3 1.31 t-1.24 3.34 t1.22 3.31 q1.26 1.32 3.32 1.32 z M54.802 5 q3.28 0 5.38 2.2 q2.06 2.16 2.06 5.3 t-2.06 5.3 q-2.1 2.2 -5.38 2.2 t-5.38 -2.2 q-2.06 -2.16 -2.06 -5.3 t2.06 -5.3 q2.1 -2.2 5.38 -2.2 z M54.802 17.14 q2.06 0 3.32 -1.32 q1.22 -1.28 1.22 -3.31 t-1.24 -3.34 t-3.3 -1.31 t-3.3 1.31 t-1.24 3.34 t1.22 3.31 q1.26 1.32 3.32 1.32 z M75.476 5 q0.28 0 0.49 0.21 t0.21 0.49 l0 13.28 q0 0.28 -0.21 0.49 t-0.49 0.21 l-1.76 0 q-0.34 0 -0.56 -0.28 l-6.94 -9.5 l0 9.08 q0 0.28 -0.21 0.49 t-0.49 0.21 l-1.5 0 q-0.28 0 -0.49 -0.21 t-0.21 -0.49 l0 -13.28 q0 -0.28 0.21 -0.49 t0.49 -0.21 l1.74 0 q0.16 0 0.32 0.07 t0.24 0.21 l6.96 9.46 l0 -9.04 q0 -0.28 0.2 -0.49 t0.48 -0.21 l1.52 0 z"/></g><g id="SvgjsG3550" featureKey="sloganFeature-0" transform="matrix(0.3174782252602053,0,0,0.3174782252602053,145.82856175154714,66.56811684295016)" fill="#fff"><path d="M0.54 19.7 l0 -2.82 c0.24 0.06 0.54 0.12 0.88 0.16 c0.34 0.06 0.7 0.1 1.08 0.12 s0.76 0.04 1.16 0.06 s0.78 0.04 1.12 0.04 c0.94 0 1.6 -0.06 2 -0.16 c0.38 -0.1 0.58 -0.28 0.58 -0.56 c0 -0.24 -0.18 -0.42 -0.36 -0.56 c-0.66 -0.44 -1.44 -0.62 -2.22 -0.8 c-2.2 -0.44 -4.22 -1.32 -4.22 -3.84 c0 -2.98 2.82 -3.68 5.24 -3.68 c1.34 0 2.7 0.14 4 0.46 l0 2.82 c-0.2 -0.06 -0.46 -0.1 -0.78 -0.16 c-0.34 -0.04 -0.68 -0.08 -1.06 -0.12 c-0.78 -0.08 -1.52 -0.12 -2.3 -0.12 c-0.44 0 -1.36 0 -1.78 0.16 c-0.28 0.1 -0.46 0.22 -0.46 0.54 c0 0.16 0.04 0.3 0.12 0.42 c0.08 0.14 0.22 0.24 0.4 0.34 c0.54 0.3 1.24 0.48 1.84 0.62 c0.5 0.12 1 0.26 1.52 0.4 c1.76 0.48 2.92 1.46 2.92 3.34 c0 3.1 -3.08 3.76 -5.56 3.76 c-1.36 0 -2.78 -0.1 -4.12 -0.42 z M17.536 7.76 l10.2 0 l0 2.78 l-3.6 0 l0 9.46 l-3 0 l0 -9.46 l-3.6 0 l0 -2.78 z M38.672 10.58 l0 2.92 l2.8 0 c0.92 0 1.46 -0.54 1.46 -1.46 s-0.54 -1.46 -1.46 -1.46 l-2.8 0 z M43.212 15.48 c0.56 0.76 1.12 1.52 1.7 2.26 c0.56 0.74 1.12 1.5 1.68 2.26 l-3.66 0 c-0.72 -0.96 -1.42 -1.92 -2.12 -2.88 c-0.7 -0.94 -1.42 -1.9 -2.14 -2.86 l0 5.74 l-3 0 l0 -12.24 l5.8 0 c2.28 0 4.22 1.74 4.22 4.04 c0 1.62 -1 3.04 -2.48 3.68 z M61.668 7.76 l3 0 l0 7.24 c0 3.18 -2.28 5.1 -5.3 5.1 c-3.1 0 -5.3 -2.04 -5.3 -5.1 l0 -7.24 l3 0 l0 7.24 c0 1.44 0.86 2.32 2.3 2.32 c1.48 0 2.3 -0.86 2.3 -2.32 l0 -7.24 z M82.764 16.58 l0 3.08 c-1.24 0.34 -2.48 0.48 -3.76 0.48 c-3.76 0 -6.28 -2.58 -6.28 -6.24 c0 -3.76 2.62 -6.24 6.26 -6.24 c1.26 0 2.58 0.1 3.78 0.48 l0 3.08 c-0.98 -0.48 -2.52 -0.66 -3.6 -0.66 c-2.44 0 -3.44 1 -3.44 3.32 c0 2.46 1.18 3.36 3.46 3.36 c1.02 0 2.68 -0.16 3.58 -0.66 z M90.16 7.76 l10.2 0 l0 2.78 l-3.6 0 l0 9.46 l-3 0 l0 -9.46 l-3.6 0 l0 -2.78 z M115.736 7.76 l3 0 l0 7.24 c0 3.18 -2.28 5.1 -5.3 5.1 c-3.1 0 -5.3 -2.04 -5.3 -5.1 l0 -7.24 l3 0 l0 7.24 c0 1.44 0.86 2.32 2.3 2.32 c1.48 0 2.3 -0.86 2.3 -2.32 l0 -7.24 z M130.212 10.58 l0 2.92 l2.8 0 c0.92 0 1.46 -0.54 1.46 -1.46 s-0.54 -1.46 -1.46 -1.46 l-2.8 0 z M134.752 15.48 c0.56 0.76 1.12 1.52 1.7 2.26 c0.56 0.74 1.12 1.5 1.68 2.26 l-3.66 0 c-0.72 -0.96 -1.42 -1.92 -2.12 -2.88 c-0.7 -0.94 -1.42 -1.9 -2.14 -2.86 l0 5.74 l-3 0 l0 -12.24 l5.8 0 c2.28 0 4.22 1.74 4.22 4.04 c0 1.62 -1 3.04 -2.48 3.68 z M145.768 7.76 l9.1 0 l0 2.78 l-6.1 0 l0 1.96 l4.9 0 l0 2.78 l-4.9 0 l0 1.94 l6.1 0 l0 2.78 l-9.1 0 l0 -12.24 z M167.244 20 l-4.3 0 l0 -12.24 l4.3 0 c3.74 0 6.3 2.44 6.3 6.12 c0 3.78 -2.7 6.12 -6.3 6.12 z M165.944 10.54 l0 6.68 l1.3 0 c2.12 0 3.3 -1.34 3.3 -3.34 c0 -0.46 -0.06 -0.88 -0.18 -1.3 c-0.52 -1.46 -1.66 -2.04 -3.12 -2.04 l-1.3 0 z M185.3 18.38 c0 1.02 -0.7 1.72 -1.72 1.72 s-1.74 -0.68 -1.74 -1.72 c0 -1.02 0.72 -1.74 1.74 -1.74 c1.06 0 1.72 0.68 1.72 1.74 z M204.192 19.7 l0 -2.82 c0.24 0.06 0.54 0.12 0.88 0.16 c0.34 0.06 0.7 0.1 1.08 0.12 s0.76 0.04 1.16 0.06 s0.78 0.04 1.12 0.04 c0.94 0 1.6 -0.06 2 -0.16 c0.38 -0.1 0.58 -0.28 0.58 -0.56 c0 -0.24 -0.18 -0.42 -0.36 -0.56 c-0.66 -0.44 -1.44 -0.62 -2.22 -0.8 c-2.2 -0.44 -4.22 -1.32 -4.22 -3.84 c0 -2.98 2.82 -3.68 5.24 -3.68 c1.34 0 2.7 0.14 4 0.46 l0 2.82 c-0.2 -0.06 -0.46 -0.1 -0.78 -0.16 c-0.34 -0.04 -0.68 -0.08 -1.06 -0.12 c-0.78 -0.08 -1.52 -0.12 -2.3 -0.12 c-0.44 0 -1.36 0 -1.78 0.16 c-0.28 0.1 -0.46 0.22 -0.46 0.54 c0 0.16 0.04 0.3 0.12 0.42 c0.08 0.14 0.22 0.24 0.4 0.34 c0.54 0.3 1.24 0.48 1.84 0.62 c0.5 0.12 1 0.26 1.52 0.4 c1.76 0.48 2.92 1.46 2.92 3.34 c0 3.1 -3.08 3.76 -5.56 3.76 c-1.36 0 -2.78 -0.1 -4.12 -0.42 z M231.528 16.58 l0 3.08 c-1.24 0.34 -2.48 0.48 -3.76 0.48 c-3.76 0 -6.28 -2.58 -6.28 -6.24 c0 -3.76 2.62 -6.24 6.26 -6.24 c1.26 0 2.58 0.1 3.78 0.48 l0 3.08 c-0.98 -0.48 -2.52 -0.66 -3.6 -0.66 c-2.44 0 -3.44 1 -3.44 3.32 c0 2.46 1.18 3.36 3.46 3.36 c1.02 0 2.68 -0.16 3.58 -0.66 z M247.224 17.52 l-4.5 0 l-0.88 2.48 l-3.26 0 l4.9 -12.24 l3 0 l4.9 12.24 l-3.28 0 z M243.704 14.74 l2.54 0 l-1.26 -3.56 z M268.08 17.22 l0 2.78 l-9.1 0 l0 -12.24 l3 0 l0 9.46 l6.1 0 z M283.556 17.52 l-4.5 0 l-0.88 2.48 l-3.26 0 l4.9 -12.24 l3 0 l4.9 12.24 l-3.28 0 z M280.036 14.74 l2.54 0 l-1.26 -3.56 z M304.332 13.72 c0.88 0.62 1.4 1.54 1.4 2.62 c0 2.08 -1.92 3.66 -3.92 3.66 l-6.5 0 l0 -12.24 l6.1 0 c1.6 0 2.92 0.86 3.62 2.28 c0.2 0.46 0.3 0.92 0.3 1.4 c0 0.9 -0.36 1.64 -1 2.28 z M298.312 10.54 l0 1.96 l3.1 0 c0.52 0 0.92 -0.5 0.92 -1 c0 -0.52 -0.38 -0.96 -0.92 -0.96 l-3.1 0 z M298.312 15.28 l0 1.94 l3.5 0 c0.54 0 0.92 -0.44 0.92 -0.96 c0 -0.26 -0.1 -0.5 -0.28 -0.7 c-0.18 -0.18 -0.4 -0.28 -0.64 -0.28 l-3.5 0 z M322.908 17.22 l0 2.78 l-9.1 0 l0 -12.24 l3 0 l0 9.46 l6.1 0 z M330.804 7.76 l9.1 0 l0 2.78 l-6.1 0 l0 1.96 l4.9 0 l0 2.78 l-4.9 0 l0 1.94 l6.1 0 l0 2.78 l-9.1 0 l0 -12.24 z M351.5 18.38 c0 1.02 -0.7 1.72 -1.72 1.72 s-1.74 -0.68 -1.74 -1.72 c0 -1.02 0.72 -1.74 1.74 -1.74 c1.06 0 1.72 0.68 1.72 1.74 z M370.392 19.7 l0 -2.82 c0.24 0.06 0.54 0.12 0.88 0.16 c0.34 0.06 0.7 0.1 1.08 0.12 s0.76 0.04 1.16 0.06 s0.78 0.04 1.12 0.04 c0.94 0 1.6 -0.06 2 -0.16 c0.38 -0.1 0.58 -0.28 0.58 -0.56 c0 -0.24 -0.18 -0.42 -0.36 -0.56 c-0.66 -0.44 -1.44 -0.62 -2.22 -0.8 c-2.2 -0.44 -4.22 -1.32 -4.22 -3.84 c0 -2.98 2.82 -3.68 5.24 -3.68 c1.34 0 2.7 0.14 4 0.46 l0 2.82 c-0.2 -0.06 -0.46 -0.1 -0.78 -0.16 c-0.34 -0.04 -0.68 -0.08 -1.06 -0.12 c-0.78 -0.08 -1.52 -0.12 -2.3 -0.12 c-0.44 0 -1.36 0 -1.78 0.16 c-0.28 0.1 -0.46 0.22 -0.46 0.54 c0 0.16 0.04 0.3 0.12 0.42 c0.08 0.14 0.22 0.24 0.4 0.34 c0.54 0.3 1.24 0.48 1.84 0.62 c0.5 0.12 1 0.26 1.52 0.4 c1.76 0.48 2.92 1.46 2.92 3.34 c0 3.1 -3.08 3.76 -5.56 3.76 c-1.36 0 -2.78 -0.1 -4.12 -0.42 z M395.548 7.76 l3 0 l0 7.24 c0 3.18 -2.28 5.1 -5.3 5.1 c-3.1 0 -5.3 -2.04 -5.3 -5.1 l0 -7.24 l3 0 l0 7.24 c0 1.44 0.86 2.32 2.3 2.32 c1.48 0 2.3 -0.86 2.3 -2.32 l0 -7.24 z M406.424 19.7 l0 -2.82 c0.24 0.06 0.54 0.12 0.88 0.16 c0.34 0.06 0.7 0.1 1.08 0.12 s0.76 0.04 1.16 0.06 s0.78 0.04 1.12 0.04 c0.94 0 1.6 -0.06 2 -0.16 c0.38 -0.1 0.58 -0.28 0.58 -0.56 c0 -0.24 -0.18 -0.42 -0.36 -0.56 c-0.66 -0.44 -1.44 -0.62 -2.22 -0.8 c-2.2 -0.44 -4.22 -1.32 -4.22 -3.84 c0 -2.98 2.82 -3.68 5.24 -3.68 c1.34 0 2.7 0.14 4 0.46 l0 2.82 c-0.2 -0.06 -0.46 -0.1 -0.78 -0.16 c-0.34 -0.04 -0.68 -0.08 -1.06 -0.12 c-0.78 -0.08 -1.52 -0.12 -2.3 -0.12 c-0.44 0 -1.36 0 -1.78 0.16 c-0.28 0.1 -0.46 0.22 -0.46 0.54 c0 0.16 0.04 0.3 0.12 0.42 c0.08 0.14 0.22 0.24 0.4 0.34 c0.54 0.3 1.24 0.48 1.84 0.62 c0.5 0.12 1 0.26 1.52 0.4 c1.76 0.48 2.92 1.46 2.92 3.34 c0 3.1 -3.08 3.76 -5.56 3.76 c-1.36 0 -2.78 -0.1 -4.12 -0.42 z M423.42 7.76 l10.2 0 l0 2.78 l-3.6 0 l0 9.46 l-3 0 l0 -9.46 l-3.6 0 l0 -2.78 z M449.136 17.52 l-4.5 0 l-0.88 2.48 l-3.26 0 l4.9 -12.24 l3 0 l4.9 12.24 l-3.28 0 z M445.616 14.74 l2.54 0 l-1.26 -3.56 z M460.872 7.76 l3 0 l0 12.24 l-3 0 l0 -12.24 z M480.308 7.76 l3 0 l0 12.24 l-3 0 l-4.8 -7.16 l0 7.16 l-3 0 l0 -12.24 l3 0 l4.8 7.16 l0 -7.16 z M499.564 17.52 l-4.5 0 l-0.88 2.48 l-3.26 0 l4.9 -12.24 l3 0 l4.9 12.24 l-3.28 0 z M496.044 14.74 l2.54 0 l-1.26 -3.56 z M520.34 13.72 c0.88 0.62 1.4 1.54 1.4 2.62 c0 2.08 -1.92 3.66 -3.92 3.66 l-6.5 0 l0 -12.24 l6.1 0 c1.6 0 2.92 0.86 3.62 2.28 c0.2 0.46 0.3 0.92 0.3 1.4 c0 0.9 -0.36 1.64 -1 2.28 z M514.32 10.54 l0 1.96 l3.1 0 c0.52 0 0.92 -0.5 0.92 -1 c0 -0.52 -0.38 -0.96 -0.92 -0.96 l-3.1 0 z M514.32 15.28 l0 1.94 l3.5 0 c0.54 0 0.92 -0.44 0.92 -0.96 c0 -0.26 -0.1 -0.5 -0.28 -0.7 c-0.18 -0.18 -0.4 -0.28 -0.64 -0.28 l-3.5 0 z M538.916 17.22 l0 2.78 l-9.1 0 l0 -12.24 l3 0 l0 9.46 l6.1 0 z M546.812 7.76 l9.1 0 l0 2.78 l-6.1 0 l0 1.96 l4.9 0 l0 2.78 l-4.9 0 l0 1.94 l6.1 0 l0 2.78 l-9.1 0 l0 -12.24 z M567.508 18.38 c0 1.02 -0.7 1.72 -1.72 1.72 s-1.74 -0.68 -1.74 -1.72 c0 -1.02 0.72 -1.74 1.74 -1.74 c1.06 0 1.72 0.68 1.72 1.74 z"/></g>
			</g>
		</svg>
	